# xmcd CD database file
#
# Track frame offsets:
#	150
#	18332
#	38247
#	64222
#	83682
#	102687
#	122680
#
# Disc length: 1877 seconds
#
# Revision: 0
# Processed by: cddbd v1.5.2PL0 Copyright (c) Steve Scherf et al.
# Submitted via: CDex 1.51
#
DISCID=57075307
DTITLE=Peach - Live!
DYEAR=2002
DGENRE=Blues
TTITLE0=Muddy Water
TTITLE1=Struttin' Joey "D"
TTITLE2=The Cure for You
TTITLE3=On My Way Home
TTITLE4=Dance With Me Henry
TTITLE5=Never Make Your Move Too Soon
TTITLE6=I Can't Stand the Rain
EXTD=YEAR: 2002
EXTT0=
EXTT1=
EXTT2=
EXTT3=
EXTT4=
EXTT5=
EXTT6=
PLAYORDER=
